<svg id="Capa_1" data-name="Capa 1" xmlns="http://www.w3.org/2000/svg" viewBox="0 0 44 53"><defs><style>.cls-1{fill:#6c757d;}</style></defs><path class="cls-1" d="M35.77,52H8a7,7,0,0,1-6.95-7V12.59A7,7,0,0,1,8,5.64h4.64a2.32,2.32,0,1,1,0,4.63H8a2.32,2.32,0,0,0-2.31,2.32V45.05A2.32,2.32,0,0,0,8,47.36H35.77a2.32,2.32,0,0,0,2.32-2.31V12.59a2.32,2.32,0,0,0-2.32-2.32H31.14a2.32,2.32,0,1,1,0-4.63h4.63a7,7,0,0,1,7,7V45.05A7,7,0,0,1,35.77,52Z"/><path class="cls-1" d="M28.82,14.91H14.91a4.64,4.64,0,0,1-4.64-4.64V5.64A4.64,4.64,0,0,1,14.91,1H28.82a4.64,4.64,0,0,1,4.63,4.64v4.63A4.64,4.64,0,0,1,28.82,14.91ZM14.91,5.64h0v4.63H28.82V5.64Z"/></svg>