<svg id="Capa_1" data-name="Capa 1" xmlns="http://www.w3.org/2000/svg" viewBox="0 0 28 34"><defs><style>.cls-1{fill:#6c757d;}</style></defs><path class="cls-1" d="M22.67,32.78H5.33A4.34,4.34,0,0,1,1,28.44V8.22A4.33,4.33,0,0,1,5.33,3.89H8.22a1.45,1.45,0,1,1,0,2.89H5.33A1.45,1.45,0,0,0,3.89,8.22V28.44a1.45,1.45,0,0,0,1.44,1.45H22.67a1.45,1.45,0,0,0,1.44-1.45V8.22a1.45,1.45,0,0,0-1.44-1.44H19.78a1.45,1.45,0,1,1,0-2.89h2.89A4.33,4.33,0,0,1,27,8.22V28.44A4.34,4.34,0,0,1,22.67,32.78Z"/><path class="cls-1" d="M18.33,9.67H9.67A2.89,2.89,0,0,1,6.78,6.78V3.89A2.89,2.89,0,0,1,9.67,1h8.66a2.89,2.89,0,0,1,2.89,2.89V6.78A2.89,2.89,0,0,1,18.33,9.67ZM9.67,3.89h0V6.78h8.66V3.89Z"/></svg>