<svg id="Capa_1" data-name="Capa 1" xmlns="http://www.w3.org/2000/svg" viewBox="0 0 64 69"><defs><style>.cls-1{fill:#6c757d;}</style></defs><path class="cls-1" d="M53.2,67.87H11.28a9,9,0,0,1-9-9V17a3,3,0,0,1,.6-1.8l9-12A3,3,0,0,1,14.28,2H50.21A3,3,0,0,1,52.6,3.2l9,12a3,3,0,0,1,.6,1.8V58.89A9,9,0,0,1,53.2,67.87ZM8.29,18V58.89a3,3,0,0,0,3,3H53.2a3,3,0,0,0,3-3V18L48.71,8H15.77Z"/><path class="cls-1" d="M59.19,20H5.29a3,3,0,0,1,0-6h53.9a3,3,0,1,1,0,6Z"/><path class="cls-1" d="M32.24,43.92a15,15,0,0,1-15-15,3,3,0,1,1,6,0,9,9,0,0,0,18,0,3,3,0,1,1,6,0A15,15,0,0,1,32.24,43.92Z"/></svg>