<svg id="Capa_1" data-name="Capa 1" xmlns="http://www.w3.org/2000/svg" viewBox="0 0 48 53"><defs><style>.cls-1{fill:#6c757d;}</style></defs><path class="cls-1" d="M39.72,51.43H7.93a6.82,6.82,0,0,1-6.81-6.81V12.83a2.29,2.29,0,0,1,.45-1.36L8.39,2.39a2.23,2.23,0,0,1,1.81-.91H37.45a2.23,2.23,0,0,1,1.81.91l6.82,9.08a2.29,2.29,0,0,1,.45,1.36V44.62A6.82,6.82,0,0,1,39.72,51.43ZM5.66,13.59v31a2.27,2.27,0,0,0,2.27,2.27H39.72A2.27,2.27,0,0,0,42,44.62v-31L36.31,6h-25Z"/><path class="cls-1" d="M44.26,15.1H3.39a2.27,2.27,0,0,1,0-4.54H44.26a2.27,2.27,0,1,1,0,4.54Z"/><path class="cls-1" d="M23.83,33.26A11.37,11.37,0,0,1,12.47,21.91a2.27,2.27,0,0,1,4.54,0,6.82,6.82,0,0,0,13.63,0,2.27,2.27,0,0,1,4.54,0A11.37,11.37,0,0,1,23.83,33.26Z"/></svg>