<svg id="Capa_1" data-name="Capa 1" xmlns="http://www.w3.org/2000/svg" viewBox="0 0 32 34"><defs><style>.cls-1{fill:#6c757d;}</style></defs><path class="cls-1" d="M25.79,32.73h-20a4.28,4.28,0,0,1-4.27-4.28v-20a1.47,1.47,0,0,1,.28-.86l4.28-5.7a1.42,1.42,0,0,1,1.14-.57H24.37a1.42,1.42,0,0,1,1.14.57l4.27,5.7a1.42,1.42,0,0,1,.29.86v20A4.28,4.28,0,0,1,25.79,32.73ZM4.41,9V28.45a1.43,1.43,0,0,0,1.42,1.42h20a1.43,1.43,0,0,0,1.43-1.42V9L23.65,4.21H8Z"/><path class="cls-1" d="M28.64,9.91H3A1.43,1.43,0,0,1,3,7.06H28.64a1.43,1.43,0,1,1,0,2.85Z"/><path class="cls-1" d="M15.81,21.32a7.14,7.14,0,0,1-7.13-7.13,1.43,1.43,0,0,1,2.86,0,4.28,4.28,0,1,0,8.55,0,1.43,1.43,0,0,1,2.85,0A7.14,7.14,0,0,1,15.81,21.32Z"/></svg>